<?xml version="1.0" encoding="UTF-8"?>
<svg id="Ebene_1" xmlns="http://www.w3.org/2000/svg" viewBox="0 0 96 96">
  <defs>
    <style>
      .cls-1 {
        fill: #00ddb3;
      }
    </style>
  </defs>
  <g id="Ebene_3">
    <g>
      <path class="cls-1" d="M56.68,74.2c-3.08,0-5.58-2.5-5.58-5.58v-19.78h11.85v-12.36H27.51v12.36h8.55v19.78c0,11.38,9.25,20.63,20.63,20.63h11.81v-15.05h-11.81,0Z"/>
      <g>
        <path class="cls-1" d="M44.24,6.75c-5.08,0-9.18,4.12-9.18,9.18s4.12,9.18,9.18,9.18,9.18-4.12,9.18-9.18-4.12-9.18-9.18-9.18ZM44.24,20.12c-2.3,0-4.18-1.87-4.18-4.18s1.87-4.18,4.18-4.18,4.18,1.87,4.18,4.18-1.87,4.18-4.18,4.18Z"/>
        <path class="cls-1" d="M36.06,20.12l5.6,10.66c1.09,2.09,4.08,2.09,5.19,0l5.6-10.66"/>
      </g>
    </g>
  </g>
</svg>
